<svg width="34" height="34" viewBox="0 0 34 34" fill="none" xmlns="http://www.w3.org/2000/svg">
<path d="M9.57668 31.1667H24.4233C28.3333 31.1667 29.8917 28.7725 30.0758 25.8542L30.8125 14.1525C31.0108 11.0925 28.5742 8.5 25.5 8.5C24.6358 8.5 23.8425 8.00417 23.4458 7.23917L22.4258 5.185C21.7742 3.89583 20.0742 2.83333 18.6292 2.83333H15.385C13.9258 2.83333 12.2258 3.89583 11.5742 5.185L10.5542 7.23917C10.1575 8.00417 9.36418 8.5 8.50001 8.5C5.42585 8.5 2.98918 11.0925 3.18751 14.1525L3.92418 25.8542C4.09418 28.7725 5.66668 31.1667 9.57668 31.1667Z" stroke="#E79698" stroke-width="2" stroke-linecap="round" stroke-linejoin="round"/>
<path d="M14.875 11.3333H19.125" stroke="#E79698" stroke-width="2" stroke-linecap="round" stroke-linejoin="round"/>
<path d="M17 25.5C19.5358 25.5 21.6042 23.4317 21.6042 20.8958C21.6042 18.36 19.5358 16.2917 17 16.2917C14.4642 16.2917 12.3958 18.36 12.3958 20.8958C12.3958 23.4317 14.4642 25.5 17 25.5Z" stroke="#E79698" stroke-width="2" stroke-linecap="round" stroke-linejoin="round"/>
</svg>
