<svg width="21" height="30" viewBox="0 0 21 30" fill="none" xmlns="http://www.w3.org/2000/svg">
<path fill-rule="evenodd" clip-rule="evenodd" d="M10.7602 11.5311C10.7602 10.9382 10.7602 10.3915 10.7602 9.84487C10.7602 9.22043 10.8758 9.1048 11.5023 9.09849C11.5633 9.09849 11.6222 9.09849 11.7063 9.09849C11.7063 8.61702 11.7063 8.14816 11.7063 7.63935C11.5107 7.63935 11.3131 7.63935 11.1134 7.63935C10.5962 7.63935 10.0789 7.64566 9.56383 7.63725C8.99825 7.62884 8.58827 7.22306 8.57355 6.65959C8.56514 6.3358 8.56304 6.01202 8.57355 5.68823C8.59037 5.14158 9.00036 4.72949 9.54701 4.72739C11.2395 4.72108 12.9299 4.72108 14.6224 4.72739C15.2027 4.72949 15.6148 5.14789 15.619 5.72818C15.6253 6.73107 15.6211 7.73396 15.6211 8.73686C15.6211 8.84619 15.6211 8.95552 15.6211 9.09849C15.7746 9.09849 15.9029 9.09639 16.0311 9.09849C16.4096 9.1069 16.5862 9.2793 16.5904 9.65985C16.5946 10.2675 16.5925 10.8751 16.5925 11.5037C16.9184 11.529 17.2401 11.529 17.5533 11.5794C18.9557 11.8065 19.9754 12.9881 19.9922 14.4157C20.007 15.57 19.9964 16.7243 19.9964 17.8806C19.9964 20.8893 19.9964 23.898 19.9964 26.9046C19.9964 28.2376 19.1933 29.0344 17.8561 29.0344C15.0703 29.0344 12.2845 29.0344 9.49865 29.0344C8.14884 29.0344 7.3562 28.2376 7.3562 26.8772C7.3562 22.8047 7.3562 18.7342 7.3562 14.6617C7.3562 12.7695 8.57355 11.5416 10.4616 11.5311C10.5478 11.529 10.6382 11.5311 10.7602 11.5311ZM8.32756 16.8862C8.32756 17.0144 8.32756 17.1132 8.32756 17.2141C8.32756 20.4562 8.32756 23.6962 8.32756 26.9361C8.32756 27.6909 8.6955 28.0609 9.44188 28.0609C12.2571 28.0609 15.0724 28.0609 17.8876 28.0609C18.6571 28.0609 19.023 27.6951 19.023 26.9277C19.023 23.6856 19.023 20.4457 19.023 17.2057C19.023 17.1006 19.023 16.9955 19.023 16.8883C15.4403 16.8861 11.906 16.8862 8.32756 16.8862ZM19.023 15.8875C19.023 15.3745 19.0314 14.8804 19.0209 14.3884C18.9978 13.354 18.1715 12.5108 17.137 12.5066C14.8285 12.494 12.5199 12.4961 10.2135 12.5066C9.31784 12.5108 8.51678 13.1521 8.39484 14.0352C8.31074 14.6365 8.37802 15.2588 8.37802 15.8875C11.8976 15.8875 15.4382 15.8875 19.023 15.8875ZM14.6288 9.08377C14.6288 7.94001 14.6288 6.82989 14.6288 5.71346C12.9278 5.71346 11.2458 5.71346 9.56383 5.71346C9.56383 6.04145 9.56383 6.34841 9.56383 6.68481C10.9452 6.68481 12.3055 6.68481 13.6553 6.68481C13.6553 7.01701 13.6553 7.31557 13.6553 7.65197C13.3294 7.65197 13.0224 7.65197 12.7239 7.65197C12.7239 8.15026 12.7239 8.61071 12.7239 9.08377C13.3651 9.08377 13.9875 9.08377 14.6288 9.08377ZM11.7567 10.0783C11.7567 10.5576 11.7567 11.0328 11.7567 11.5101C13.0477 11.5101 14.326 11.5101 15.5959 11.5101C15.5959 11.0202 15.5959 10.5513 15.5959 10.0783C14.3092 10.0783 13.0456 10.0783 11.7567 10.0783Z" fill="#E79698" stroke="#E79698" stroke-width="0.3"/>
<path fill-rule="evenodd" clip-rule="evenodd" d="M2.96708 2.94852C4.03743 2.95527 4.90719 3.84356 4.89707 4.91897C4.88696 5.9792 4.00709 6.84728 2.94517 6.84559C1.87483 6.8439 0.996639 5.95729 1.00001 4.88694C1.00507 3.81829 1.89505 2.94178 2.96708 2.94852ZM4.12002 4.89031C4.11665 4.24811 3.60255 3.73232 2.95866 3.72895C2.30802 3.72557 1.78043 4.25317 1.7838 4.90211C1.78718 5.54095 2.30633 6.06011 2.94685 6.06348C3.59918 6.06685 4.12171 5.54432 4.12002 4.89031Z" fill="#E79698" stroke="#E79698" stroke-width="0.3"/>
<path fill-rule="evenodd" clip-rule="evenodd" d="M6.6551 4.11664C5.79713 4.11833 5.09088 3.40702 5.09425 2.54737C5.09931 1.69952 5.80219 1 6.65004 1C7.50969 1 8.21426 1.70795 8.21089 2.56928C8.20583 3.41544 7.50294 4.11496 6.6551 4.11664ZM6.64498 1.77706C6.21853 1.78043 5.87804 2.1226 5.87467 2.55242C5.8713 2.98899 6.22527 3.33959 6.66184 3.33453C7.08829 3.32948 7.43047 2.98393 7.43215 2.55916C7.43384 2.1226 7.08155 1.77368 6.64498 1.77706Z" fill="#E79698" stroke="#E79698" stroke-width="0.3"/>
<path fill-rule="evenodd" clip-rule="evenodd" d="M5.6639 8.98798C4.91887 8.98124 4.3087 8.35926 4.31375 7.61086C4.32049 6.86583 4.94247 6.25566 5.69087 6.26071C6.43758 6.26745 7.04608 6.88943 7.04102 7.63783C7.03597 8.38454 6.4123 8.99473 5.6639 8.98798ZM5.68919 8.20924C6.01113 8.20419 6.26902 7.93281 6.25891 7.60749C6.2488 7.29397 5.98922 7.04282 5.6757 7.04451C5.35038 7.04619 5.08912 7.31083 5.09418 7.63446C5.09755 7.95809 5.36387 8.2143 5.68919 8.20924Z" fill="#E79698" stroke="#E79698" stroke-width="0.3"/>
</svg>
