<svg width="34" height="34" viewBox="0 0 34 34" fill="none" xmlns="http://www.w3.org/2000/svg">
<path d="M12.75 31.1667H21.25C28.3333 31.1667 31.1667 28.3333 31.1667 21.25V12.75C31.1667 5.66666 28.3333 2.83333 21.25 2.83333H12.75C5.66668 2.83333 2.83334 5.66666 2.83334 12.75V21.25C2.83334 28.3333 5.66668 31.1667 12.75 31.1667Z" stroke="#E79698" stroke-width="2" stroke-linecap="round" stroke-linejoin="round"/>
<path d="M12.75 14.1667C14.3148 14.1667 15.5833 12.8981 15.5833 11.3333C15.5833 9.76853 14.3148 8.5 12.75 8.5C11.1852 8.5 9.91666 9.76853 9.91666 11.3333C9.91666 12.8981 11.1852 14.1667 12.75 14.1667Z" stroke="#E79698" stroke-width="2" stroke-linecap="round" stroke-linejoin="round"/>
<path d="M3.7825 26.8458L10.7667 22.1567C11.8858 21.4058 13.5008 21.4908 14.5067 22.355L14.9742 22.7658C16.0792 23.715 17.8642 23.715 18.9692 22.7658L24.8625 17.7083C25.9675 16.7592 27.7525 16.7592 28.8575 17.7083L31.1667 19.6917" stroke="#E79698" stroke-width="2" stroke-linecap="round" stroke-linejoin="round"/>
</svg>
