<svg width="27" height="24" viewBox="0 0 27 24" fill="none" xmlns="http://www.w3.org/2000/svg">
<path fill-rule="evenodd" clip-rule="evenodd" d="M19.6046 17.4802C19.5978 21.0801 16.8612 23.7562 13.504 23.6783C10.8263 23.6163 8.41029 21.5216 7.92496 18.8545C7.66491 17.4265 7.87054 16.0741 8.54712 14.7928C10.1112 11.8302 11.6783 8.86982 13.2409 5.90721C13.3437 5.71217 13.4594 5.54888 13.7005 5.5451C13.9575 5.54056 14.0762 5.71519 14.1828 5.91779C15.7454 8.8804 17.311 11.8423 18.8766 14.8034C19.3581 15.7143 19.5993 16.6842 19.6046 17.4802ZM13.7179 6.98143C13.6657 7.06231 13.6378 7.09784 13.6173 7.13715C12.1682 9.88129 10.7114 12.6224 9.27435 15.3733C8.71797 16.44 8.59474 17.5785 8.83136 18.7593C9.4641 21.9079 12.8984 23.6647 15.7832 22.3123C18.4215 21.0748 19.4556 17.8983 18.076 15.235C17.4123 13.9529 16.7289 12.6814 16.0546 11.4053C15.2842 9.94631 14.5132 8.4873 13.7179 6.98143Z" fill="#E79698" stroke="#E79698" stroke-width="0.5"/>
<path fill-rule="evenodd" clip-rule="evenodd" d="M8.26683 8.24248C8.26381 9.73172 7.34002 11.0909 5.95737 11.6383C4.58833 12.1803 3.00005 11.8197 2.00899 10.7432C0.952911 9.59565 0.690593 7.99452 1.38986 6.61792C2.12011 5.18084 2.89724 3.76719 3.65396 2.34372C3.83993 1.99371 4.0206 1.64143 4.21337 1.29596C4.42882 0.910415 4.85065 0.899076 5.05702 1.28462C6.01483 3.07171 6.96885 4.86031 7.91002 6.65572C8.16704 7.14709 8.26608 7.6876 8.26683 8.24248ZM4.63293 2.41326C3.76584 4.06202 2.85718 5.61098 2.12163 7.23856C1.35206 8.94099 2.67877 10.9156 4.52407 10.9791C6.57499 11.0501 7.97352 8.91982 7.09056 7.05108C6.81312 6.4637 6.48655 5.899 6.18189 5.32523C5.67842 4.37725 5.1742 3.43003 4.63293 2.41326Z" fill="#E79698" stroke="#E79698" stroke-width="0.5"/>
<path fill-rule="evenodd" clip-rule="evenodd" d="M22.7768 11.8891C20.1279 11.8876 18.334 9.07395 19.508 6.67604C20.4031 4.84813 21.4047 3.07162 22.3671 1.27697C22.5659 0.905794 22.9945 0.908062 23.1948 1.28151C24.1564 3.07691 25.1596 4.85266 26.0516 6.68209C27.2226 9.08453 25.4264 11.8907 22.7768 11.8891ZM22.7692 2.43737C21.9301 4.01884 21.0925 5.53832 20.3131 7.08729C19.7832 8.1411 20.0652 9.41791 20.9194 10.2328C21.7479 11.0236 22.9688 11.2065 23.9886 10.694C25.3561 10.0061 25.8997 8.32933 25.1792 6.93987C24.4286 5.49221 23.6507 4.05891 22.8841 2.61956C22.8584 2.57193 22.8267 2.52809 22.7692 2.43737Z" fill="#E79698" stroke="#E79698" stroke-width="0.5"/>
<path fill-rule="evenodd" clip-rule="evenodd" d="M10.1704 17.8227C10.2596 17.6511 10.3095 17.4311 10.4471 17.3185C10.7026 17.1098 11.0723 17.2905 11.1305 17.6246C11.1675 17.8378 11.1645 18.0578 11.2106 18.2687C11.4533 19.389 12.365 20.1911 13.5012 20.2977C13.5669 20.3037 13.6327 20.3083 13.6985 20.3158C14.0114 20.3529 14.1823 20.5373 14.1566 20.8095C14.1309 21.0786 13.9366 21.2305 13.6115 21.2169C12.5403 21.1716 11.6665 20.7241 10.9989 19.891C10.5257 19.3006 10.2725 18.6187 10.1704 17.8227Z" fill="#E79698" stroke="#E79698" stroke-width="0.5"/>
<path fill-rule="evenodd" clip-rule="evenodd" d="M2.82688 8.32402C2.81706 7.9982 2.9622 7.80921 3.23813 7.7888C3.53144 7.76763 3.69926 7.93243 3.73177 8.27412C3.78166 8.79573 4.0969 9.11399 4.62078 9.16918C4.93299 9.20168 5.10762 9.38614 5.0857 9.65829C5.06377 9.93194 4.86798 10.0839 4.54896 10.0733C3.64483 10.0446 2.85561 9.24251 2.82688 8.32402Z" fill="#E79698" stroke="#E79698" stroke-width="0.5"/>
<path fill-rule="evenodd" clip-rule="evenodd" d="M20.9671 8.3127C20.9595 7.99142 21.1122 7.80167 21.3904 7.78731C21.6731 7.77219 21.8417 7.93623 21.8727 8.256C21.9256 8.80256 22.228 9.10948 22.7731 9.16845C23.0694 9.20095 23.2387 9.37634 23.2281 9.64017C23.2168 9.91534 23.021 10.0786 22.7073 10.0733C21.7964 10.0575 20.9882 9.24026 20.9671 8.3127Z" fill="#E79698" stroke="#E79698" stroke-width="0.5"/>
</svg>
