<svg width="54" height="53" viewBox="0 0 54 53" fill="none" xmlns="http://www.w3.org/2000/svg">
<ellipse cx="27" cy="26.626" rx="26.5" ry="26" fill="#F3F3F3"/>
<path d="M30 24.626C30.8284 24.626 31.5 23.9544 31.5 23.126C31.5 22.2975 30.8284 21.626 30 21.626C29.1716 21.626 28.5 22.2975 28.5 23.126C28.5 23.9544 29.1716 24.626 30 24.626Z" fill="#1E1E21"/>
<path d="M17.5 19.626C17.5 18.5214 18.3954 17.626 19.5 17.626H33.5C34.6046 17.626 35.5 18.5214 35.5 19.626V33.626C35.5 34.7305 34.6046 35.626 33.5 35.626H19.5C18.3954 35.626 17.5 34.7305 17.5 33.626V19.626ZM33.5 19.626H19.5V27.5454L22.8753 24.8451C23.2406 24.5529 23.7595 24.5529 24.1247 24.8451L28.4258 28.286L29.7929 26.9189C30.1835 26.5283 30.8166 26.5283 31.2071 26.9189L33.5 29.2117V19.626ZM19.5 33.626H33.5V32.0402L30.5 29.0402L29.2071 30.3331C28.8468 30.6934 28.2732 30.7252 27.8753 30.4068L23.5 26.9066L19.5 30.1066V33.626Z" fill="#1E1E21"/>
</svg>
