<svg width="26" height="26" viewBox="0 0 26 26" fill="none" xmlns="http://www.w3.org/2000/svg">
<path d="M3.26083 12.155V17.0192C3.26083 21.8833 5.21083 23.8333 10.075 23.8333H15.9142C20.7783 23.8333 22.7283 21.8833 22.7283 17.0192V12.155" stroke="#B8A5A5" stroke-width="1.5" stroke-linecap="round" stroke-linejoin="round"/>
<path d="M13 13C14.9825 13 16.445 11.3858 16.25 9.40332L15.535 2.16666H10.4758L9.74999 9.40332C9.55499 11.3858 11.0175 13 13 13Z" stroke="#B8A5A5" stroke-width="1.5" stroke-linecap="round" stroke-linejoin="round"/>
<path d="M19.8358 13C22.0242 13 23.6275 11.2233 23.4108 9.04582L23.1075 6.06666C22.7175 3.24999 21.6342 2.16666 18.7958 2.16666H15.4917L16.25 9.76082C16.4342 11.5483 18.0483 13 19.8358 13Z" stroke="#B8A5A5" stroke-width="1.5" stroke-linecap="round" stroke-linejoin="round"/>
<path d="M6.10999 13C7.8975 13 9.51166 11.5483 9.68499 9.76082L9.92333 7.36666L10.4433 2.16666H7.13916C4.30083 2.16666 3.21749 3.24999 2.82749 6.06666L2.53499 9.04582C2.31833 11.2233 3.92166 13 6.10999 13Z" stroke="#B8A5A5" stroke-width="1.5" stroke-linecap="round" stroke-linejoin="round"/>
<path d="M13 18.4167C11.1908 18.4167 10.2917 19.3158 10.2917 21.125V23.8333H15.7083V21.125C15.7083 19.3158 14.8092 18.4167 13 18.4167Z" stroke="#B8A5A5" stroke-width="1.5" stroke-linecap="round" stroke-linejoin="round"/>
</svg>
