<svg width="25" height="26" viewBox="0 0 25 26" fill="none" xmlns="http://www.w3.org/2000/svg">
<path fill-rule="evenodd" clip-rule="evenodd" d="M10.5837 25.9987C10.5081 25.9665 10.4325 25.9343 10.3569 25.9008C9.84005 25.6703 9.5401 25.2786 9.51531 24.7072C9.4992 24.3267 9.50416 23.9462 9.51407 23.5657C9.53267 22.8815 10.0594 22.3027 10.7461 22.2878C11.9632 22.2618 13.1829 22.263 14.4012 22.2866C15.0334 22.299 15.549 22.7786 15.6147 23.4108C15.663 23.8793 15.6618 24.3589 15.6209 24.8275C15.5725 25.384 15.2255 25.7434 14.7061 25.9368C14.6516 25.9566 14.5983 25.9789 14.5438 26C13.2238 25.9987 11.9037 25.9987 10.5837 25.9987ZM10.9097 24.587C12.0252 24.587 13.1271 24.587 14.2351 24.587C14.2351 24.2759 14.2351 23.9822 14.2351 23.6797C13.1209 23.6797 12.019 23.6797 10.9097 23.6797C10.9097 23.9884 10.9097 24.2809 10.9097 24.587Z" fill="#B8A5A5"/>
<path fill-rule="evenodd" clip-rule="evenodd" d="M12.7676 0C13.1543 0.187157 13.2907 0.494541 13.2807 0.920913C13.2597 1.78233 13.2795 2.64499 13.2721 3.50641C13.2684 4.05549 12.7812 4.40254 12.3078 4.19803C12.0004 4.0654 11.8777 3.81132 11.8777 3.48658C11.8789 2.88669 11.8777 2.28679 11.8777 1.68689C11.8777 1.42537 11.8901 1.16261 11.8752 0.901081C11.8492 0.47347 12.0004 0.162368 12.4119 0C12.5309 0 12.6486 0 12.7676 0Z" fill="#B8A5A5"/>
<path fill-rule="evenodd" clip-rule="evenodd" d="M12.5755 21.6359C11.9409 21.6359 11.3063 21.6408 10.6717 21.6346C9.62933 21.6259 9.01828 21.0657 9.08149 20.032C9.14346 19.0144 8.72576 18.2447 8.11595 17.5048C7.57927 16.8541 7.00045 16.217 6.57903 15.4944C4.18565 11.3868 6.66208 6.10799 11.3435 5.27384C15.1672 4.59214 18.8211 7.16649 19.4074 10.9815C19.7358 13.1196 19.1644 15.0147 17.7651 16.6657C17.3499 17.1552 16.9495 17.6597 16.5616 18.1716C16.1811 18.6723 15.9815 19.2375 16.0584 19.8783C16.0683 19.9614 16.0646 20.0469 16.0658 20.1324C16.077 21.0669 15.5713 21.5987 14.6318 21.6346C14.5983 21.6359 14.5636 21.6371 14.5301 21.6371C13.8782 21.6346 13.2262 21.6346 12.5755 21.6359C12.5755 21.6346 12.5755 21.6346 12.5755 21.6359ZM14.6603 20.2303C14.6603 20.1349 14.6665 20.0605 14.659 19.9874C14.5599 18.9549 14.8858 18.0501 15.5043 17.2445C15.9629 16.6483 16.4538 16.0769 16.9198 15.4857C18.329 13.6984 18.4951 11.2691 17.3499 9.29959C16.2121 7.34373 13.9786 6.24681 11.7537 6.61865C9.67395 6.9657 8.1866 8.13574 7.4293 10.1065C6.67943 12.0586 6.99797 13.8942 8.28576 15.5477C8.65512 16.0211 9.0567 16.4686 9.43349 16.9359C10.1375 17.8059 10.5664 18.7764 10.4598 19.9242C10.4362 20.1845 10.5341 20.2551 10.787 20.2539C11.9793 20.2427 13.1717 20.2489 14.3653 20.2477C14.4558 20.2477 14.5475 20.2365 14.6603 20.2303Z" fill="#B8A5A5"/>
<path fill-rule="evenodd" clip-rule="evenodd" d="M3.64894 2.81232C3.73694 2.85942 3.92286 2.91519 4.05052 3.03294C4.75081 3.68241 5.43995 4.34304 6.12661 5.00615C6.43399 5.30361 6.44639 5.71264 6.17866 6.00391C5.91342 6.29146 5.48829 6.31129 5.17967 6.02126C4.4707 5.35691 3.77041 4.68265 3.0726 4.00715C2.85073 3.79272 2.7962 3.525 2.91766 3.23869C3.03541 2.96477 3.25727 2.83091 3.64894 2.81232Z" fill="#B8A5A5"/>
<path fill-rule="evenodd" clip-rule="evenodd" d="M19.1434 6.45136C18.8373 6.4055 18.5881 6.24685 18.489 5.98285C18.3762 5.68538 18.4369 5.41766 18.6687 5.19579C19.2054 4.68142 19.7433 4.16829 20.2812 3.65516C20.4399 3.50394 20.596 3.34901 20.7609 3.20276C21.067 2.93008 21.4686 2.93751 21.7413 3.21143C22.009 3.48287 22.0214 3.90676 21.7314 4.1906C21.0323 4.87726 20.3221 5.55276 19.6032 6.21958C19.4805 6.32989 19.2971 6.37451 19.1434 6.45136Z" fill="#B8A5A5"/>
<path fill-rule="evenodd" clip-rule="evenodd" d="M2.02778 11.5802C1.59645 11.5802 1.16636 11.5852 0.735029 11.579C0.293784 11.5728 -0.00368389 11.2827 3.44665e-05 10.8787C0.00375282 10.4845 0.297504 10.1995 0.725115 10.197C1.61256 10.192 2.49877 10.1945 3.38622 10.2007C3.80887 10.2032 4.10882 10.4969 4.1113 10.8861C4.11378 11.2765 3.81383 11.5752 3.39613 11.5827C2.94002 11.5901 2.4839 11.5839 2.02778 11.5839C2.02778 11.5814 2.02778 11.5814 2.02778 11.5802Z" fill="#B8A5A5"/>
<path fill-rule="evenodd" clip-rule="evenodd" d="M22.4651 11.5839C22.0424 11.5839 21.6198 11.5864 21.1971 11.5839C20.7199 11.5802 20.4026 11.2976 20.4063 10.8849C20.4101 10.4796 20.7199 10.2007 21.1835 10.1994C22.0362 10.1957 22.8902 10.1945 23.743 10.1957C24.2115 10.197 24.5139 10.4684 24.5176 10.8799C24.5201 11.2926 24.2189 11.5752 23.7566 11.5802C23.3253 11.5851 22.8952 11.5814 22.4638 11.5814C22.4651 11.5814 22.4651 11.5827 22.4651 11.5839Z" fill="#B8A5A5"/>
</svg>
